<svg width="24" height="24" viewBox="0 0 24 24" fill="none" xmlns="http://www.w3.org/2000/svg">
<path d="M12 12C14.4853 12 16.5 9.98528 16.5 7.5C16.5 5.01472 14.4853 3 12 3C9.51472 3 7.5 5.01472 7.5 7.5C7.5 9.98528 9.51472 12 12 12ZM12 10.2C10.5098 10.2 9.3 8.99017 9.3 7.5C9.3 6.00983 10.5098 4.8 12 4.8C13.4902 4.8 14.7 6.00983 14.7 7.5C14.7 8.99017 13.4902 10.2 12 10.2ZM12 14.25C8.2425 14.25 5.25 16.1223 5.25 18.45V21H18.75V18.45C18.75 16.1223 15.7575 14.25 12 14.25ZM7.05 18.45C7.05 17.4225 9.38878 16.05 12 16.05C14.6112 16.05 16.95 17.4225 16.95 18.45V19.2H7.05V18.45Z" fill="#747E98"/>
</svg>
