<svg width="24" height="24" viewBox="0 0 24 24" fill="none" xmlns="http://www.w3.org/2000/svg">
<path d="M5.33333 4.5C4.8731 4.5 4.5 4.8731 4.5 5.33333V10.3333C4.5 10.7936 4.8731 11.1667 5.33333 11.1667H10.3333C10.7936 11.1667 11.1667 10.7936 11.1667 10.3333V5.33333C11.1667 4.8731 10.7936 4.5 10.3333 4.5H5.33333ZM5.33333 12.8333C4.8731 12.8333 4.5 13.2064 4.5 13.6667V18.6667C4.5 19.1269 4.8731 19.5 5.33333 19.5H10.3333C10.7936 19.5 11.1667 19.1269 11.1667 18.6667V13.6667C11.1667 13.2064 10.7936 12.8333 10.3333 12.8333H5.33333ZM13.6667 12.8333C13.2064 12.8333 12.8333 13.2064 12.8333 13.6667V18.6667C12.8333 19.1269 13.2064 19.5 13.6667 19.5H18.6667C19.1269 19.5 19.5 19.1269 19.5 18.6667V13.6667C19.5 13.2064 19.1269 12.8333 18.6667 12.8333H13.6667ZM14.5 17.8333V14.5H17.8333V17.8333H14.5ZM6.16667 9.5V6.16667H9.5V9.5H6.16667ZM6.16667 17.8333V14.5H9.5V17.8333H6.16667ZM15.3333 11.1667V8.66667H12.8333V7H15.3333V4.5H17V7H19.5V8.66667H17V11.1667H15.3333Z" fill="#747E98"/>
</svg>
