<svg width="24" height="24" viewBox="0 0 24 24" fill="none" xmlns="http://www.w3.org/2000/svg">
<path d="M12 3.8999C16.8528 3.8999 20.8902 7.3919 21.7371 11.9999C20.8911 16.6079 16.8528 20.0999 12 20.0999C7.14718 20.0999 3.10978 16.6079 2.26288 11.9999C3.10888 7.3919 7.14718 3.8999 12 3.8999ZM12 18.2999C13.8355 18.2995 15.6165 17.676 17.0515 16.5316C18.4866 15.3871 19.4906 13.7893 19.8993 11.9999C19.4891 10.2119 18.4844 8.61591 17.0495 7.47293C15.6147 6.32995 13.8345 5.70758 12 5.70758C10.1655 5.70758 8.3853 6.32995 6.95042 7.47293C5.51553 8.61591 4.51087 10.2119 4.10068 11.9999C4.50937 13.7893 5.51339 15.3871 6.94841 16.5316C8.38343 17.676 10.1645 18.2995 12 18.2999ZM12 16.0499C10.9259 16.0499 9.89572 15.6232 9.1362 14.8637C8.37667 14.1042 7.94998 13.074 7.94998 11.9999C7.94998 10.9258 8.37667 9.89564 9.1362 9.13612C9.89572 8.3766 10.9259 7.9499 12 7.9499C13.0741 7.9499 14.1042 8.3766 14.8638 9.13612C15.6233 9.89564 16.05 10.9258 16.05 11.9999C16.05 13.074 15.6233 14.1042 14.8638 14.8637C14.1042 15.6232 13.0741 16.0499 12 16.0499ZM12 14.2499C12.5967 14.2499 13.169 14.0128 13.591 13.5909C14.0129 13.1689 14.25 12.5966 14.25 11.9999C14.25 11.4032 14.0129 10.8309 13.591 10.4089C13.169 9.98696 12.5967 9.7499 12 9.7499C11.4032 9.7499 10.8309 9.98696 10.409 10.4089C9.98703 10.8309 9.74998 11.4032 9.74998 11.9999C9.74998 12.5966 9.98703 13.1689 10.409 13.5909C10.8309 14.0128 11.4032 14.2499 12 14.2499Z" fill="#7B7B7B"/>
</svg>
